#!OML:ASF F:\VICON\USERDATA\INSTALL\rory3\rory3.ASF
:FULLY-SPECIFIED
:DEGREES
9
root -6.192828577949555 17.747109712077144 0.5669607287500111 -18.12830881186035 79.67598499437786 -35.04580842757194
lfemur -27.273092481485662 12.796594639476762 -5.391240335364789
ltibia 29.53399862574063
lfoot -10.737887847741467 5.667303255429806
ltoes -24.2820924289734
rfemur -34.28879009542575 4.179608389858956 13.580808647259136
rtibia 29.241694843373736
rfoot -8.173571985799388 -3.004022481631795
rtoes -1.292034903797198
lowerback 1.5884013312551875 2.9058890045172125 -5.1363054489941256
upperback 4.459899171215326 3.921588734200988 2.614368009554994
thorax 3.2051922131776047 1.7810582768931154 5.627492819363079
lowerneck -15.268385065240912 0.9067484285078694 0.6788561096130635
upperneck 37.917780812783214 4.4082588772347275 -3.948152124671482
head 16.237578840331345 1.8388585590893671 -0.9189474625932517
lclavicle -5.008195841241865e-15 -1.0203021528831393e-14
lhumerus 21.617512554588444 -82.55458495110541 73.13199403243388
lradius 28.849107079740406
lwrist 41.0048853778326
lhand 9.289841960682564 68.80167999933242
lfingers 7.125020000000001
lthumb -145.5480180240162 84.51609876187163
rclavicle -5.008195841241865e-15 -1.0203021528831393e-14
rhumerus -11.85098851254844 3.8965908355137477 -102.6819831926598
rradius 38.611711611372634
rwrist -59.17698494696168
rhand -26.960609702126625 -11.705882612113527
rfingers 7.125020000000001
rthumb -0.38203170081653326 -41.68528191180009
10
root -6.210598219138556 17.732910542255944 0.6284624946380526 -14.105909311218028 76.73038596948196 -30.821808975564423
lfemur -25.91399370487859 13.623494147564333 -4.281171464466076
ltibia 29.718698340798063
lfoot -11.004087648474608 7.805692452542983
ltoes -23.92269253835779
rfemur -34.66518992618121 4.35574823806563 14.90070681858351
rtibia 28.957595148373915
rfoot -7.851652161273605 -0.08317222511244715
rtoes 4.1754614808092185
lowerback 1.8422309100323386 2.4597394452415524 -5.643545018504825
upperback 4.395209253964367 3.315769195230807 2.2628786775075116
thorax 3.071262486817829 1.4707087816138142 5.533403009102287
lowerneck -14.872086074590168 2.430168540458591 0.9022504538979085
upperneck 37.33508145364854 6.665007961946433 -4.325771571723028
head 15.961579692849767 2.733827781013053 -0.7278892473925365
lclavicle -5.008195167603529e-15 -1.0203021459588131e-14
lhumerus 31.466709805138287 -82.43968498275744 63.44599828077811
lradius 28.73640713465271
lwrist 39.358886396379866
lhand 10.005881408749298 55.79998558483115
lfingers 7.125020000000001
lthumb -144.86801856961586 262.32498833743296
rclavicle -5.008195167603529e-15 -1.0203021459588131e-14
rhumerus -12.612388350447112 4.804920440464398 -102.31698338961789
rradius 41.32961060638887
rwrist -62.63598366721801
rhand -30.67460772098589 -13.198181641580568
rfingers 7.125020000000001
rthumb -3.9689277118618076 -43.14088098684492
11
root -6.208838254676393 17.725610969038005 0.723007134745443 -11.110609683067082 73.31118710136522 -27.824209364452116
lfemur -24.222295227661206 14.986393336792187 -3.031612735448803
ltibia 29.619698493528514
lfoot -11.413287342163654 9.456471832735767
ltoes -22.160793074596764
rfemur -35.04458975558767 5.174457532520543 16.282604904009013
rtibia 28.66699546035229
rfoot -7.8025721880264625 2.446165384679798
rtoes 2.148152821371312
lowerback 1.082512170763613 1.9420799566062579 -6.5564642437191765
upperback 4.496289124666559 2.6811996781394063 1.9823492106114995
thorax 3.67477125375121 1.0989093862703487 5.795732480095117
lowerneck -14.284787570403516 4.008947620138836 1.1480447324336556
upperneck 36.375982508486345 8.974027025458547 -4.862370785980384
head 15.493581138424481 3.64999698450571 -0.6123133270625183
lclavicle -5.008195581654998e-15 -1.0203021445808438e-14
lhumerus 37.37890815472019 -81.61228521068428 58.400900493592644
lradius 28.288707352791373
lwrist 36.735388019805654
lhand 12.548879448570341 63.13248243480696
lfingers 7.125020000000001
lthumb -142.46002050168067 269.05498794287126
rclavicle -5.008195581654998e-15 -1.0203021445808438e-14
rhumerus -13.040288259347662 5.68283005864526 -101.5799837873113
rradius 44.160409559658646
rwrist -65.70048253342951
rhand -34.398905734350905 -13.805681246486564
rfingers 7.125020000000001
rthumb -7.564595718042925 -43.65038066308519
12
root -6.205558320905997 17.713611670597555 0.8105608014645966 -10.318909781352133 70.20108813092506 -27.016709469211605
lfemur -22.704896593547804 16.2310925963357 -1.571564220530231
ltibia 29.741698305315236
lfoot -11.400287351894887 11.121491207582016
ltoes -24.310092420451547
rfemur -35.072989742817924 5.929956881448355 17.923502630599025
rtibia 28.135596030845427
rfoot -7.700102243881472 4.859224439993838
rtoes 3.673711812592206
lowerback 0.7848626647043555 1.2199706699346349 -6.854123991098241
upperback 4.456369175730778 1.7445003909693335 1.6682498075100913
thorax 3.943890703896381 0.6139981748803802 5.632662808937411
lowerneck -14.090888064253704 5.625656677708532 1.510153669558413
upperneck 35.92658300274569 11.366996054922405 -5.345740078182353
head 15.413781384913506 4.616056144624596 -0.46880766764239334
lclavicle -5.0081954044344495e-15 -1.0203021374153743e-14
lhumerus 48.01130518663607 -81.08378535627213 48.516304829044174
lradius 28.276207358881912
lwrist 34.48338941334666
lhand 13.956578363496126 62.98118249980499
lfingers 7.125020000000001
lthumb -141.1310215680072 268.5389879731228
rclavicle -5.0081954044344495e-15 -1.0203021374153743e-14
rhumerus -13.30308820339799 4.640330512047603 -101.01998408949342
rradius 46.930208535484006
rwrist -66.70368216227064
rhand -38.1408037383276 -14.230180970408558
rfingers 7.125020000000001
rthumb -11.175103715995172 -43.91258049647112
13
root -6.188868657909686 17.70701205645531 0.9263233608040871 -9.50670988218205 67.11498915253986 -26.152309581352682
lfemur -20.983698142884826 17.2920919651601 -0.11939069760163168
ltibia 29.93249801096201
lfoot -11.671387148960152 12.767790589456903
ltoes -23.943492532027264
rfemur -34.79748986669375 7.394355619462775 19.239100807880888
rtibia 27.49039672351043
rfoot -7.719272233432135 6.18497392097753
rtoes 2.5412125614597443
lowerback 0.3875243240758448 0.4378314425629777 -7.290783620509469
upperback 4.273829409229201 0.7448951516708122 1.0487009848692863
thorax 4.131060321478382 0.10634600047398912 5.210923659406198
lowerneck -13.179890384509028 7.341145677696294 2.7416000549724626
upperneck 34.85338418307295 13.66179512420185 -6.157568889420793
head 14.997682670177705 5.658255238548269 -0.6537029404151705
lclavicle -5.008195233658612e-15 -1.0203021374153743e-14
lhumerus 52.83830383915654 -80.06208563772361 44.60240654570683
lradius 27.915807534484284
lwrist 30.64739178706929
lhand 14.66087782061213 57.91908467447091
lfingers 7.125020000000001
lthumb -140.46802209996684 263.2849882811504
rclavicle -5.008195233658612e-15 -1.0203021374153743e-14
rhumerus -14.151588022753138 4.240190686075815 -100.34198445534983
rradius 50.61610717256791
rwrist -68.75968140160188
rhand -41.93150171627319 -13.077581720014052
rfingers 7.125020000000001
rthumb -14.829201689776548 -42.52698137694527
14
root -6.174488948269967 17.686613249106543 1.0544048732503797 -8.761089974746653 64.04729016806354 -25.33530968734462
lfemur -19.20439974452052 18.56579120745194 1.3510828067132028
ltibia 30.111697734504464
lfoot -11.672287148286442 13.94779014641023
ltoes -24.134592473865418
rfemur -34.708689906621785 8.85447436116559 20.550398991120254
rtibia 27.408796811113437
rfoot -7.678532255638959 7.836703274343703
rtoes 2.833942367891588
lowerback -0.07086121524661504 -0.48505764577034416 -7.876393123508357
upperback 4.207129494549392 -0.4272129563527023 0.6612357211886416
thorax 4.500339566980787 -0.5050260052530704 5.0949738932276585
lowerneck -12.671691678860034 9.111214645867667 2.880379647621575
upperneck 33.86788526694602 16.194594096953775 -6.550568313951432
head 14.649883744474462 6.7099643242040665 -0.4275710528604837
lclavicle -5.008195439878333e-15 -1.0203021120606324e-14
lhumerus 64.00320072242265 -78.78788598873211 34.7180108810706
lradius 27.573407701316327
lwrist 27.45419376302631
lhand 15.68287703284056 54.29778623017265
lfingers 7.125020000000001
lthumb -139.50602287182994 259.37298851050036
rclavicle -5.008195439878333e-15 -1.0203021120606324e-14
rhumerus -14.591587929077697 3.5230209979861855 -99.26058503888524
rradius 54.71160565819602
rwrist -70.37848080268637
rhand -45.810699647010644 -11.312682867835235
rfingers 7.125020000000001
rthumb -18.563599619031127 -40.446982698673025
15
root -6.157379293754277 17.67111415528763 1.206204295412328 -8.582649996898667 61.02409116885606 -24.87060974763176
lfemur -17.183701563452267 19.754390500368697 3.0551410734384437
ltibia 30.67379686733493
lfoot -11.802387050898693 14.942689772861902
ltoes -24.747292287388525
rfemur -34.29169009412178 10.436192998076375 22.021596952823714
rtibia 27.46039675571742
rfoot -7.424592394058213 9.780282513453939
rtoes 5.8247903901869424
lowerback -0.6460539607308893 -1.2966468440501409 -8.371822703042115
upperback 4.286129393495477 -1.4219971993200073 0.23427853255645292
thorax 5.068318406507586 -1.0334871458178863 4.8665143539335425
lowerneck -11.679994204652795 10.7575936861418 3.449807976214954
upperneck 32.348686937793225 18.418493194988688 -7.2529572854427125
head 14.048685601481976 7.705723458502115 -0.4848175180839487
lclavicle -5.008194911439285e-15 -1.0203021462344083e-14
lhumerus 72.60899832007344 -77.05908646497106 27.56481401851191
lradius 27.384907793161574
lwrist 24.48139560259944
lhand 16.03727675966423 48.15548886888989
lfingers 7.125020000000001
lthumb -139.17302313901337 253.12698887668535
rclavicle -5.008194911439285e-15 -1.0203021462344083e-14
rhumerus -14.617087923648874 1.238601991522283 -98.1755856243633
rradius 59.26700397376938
rwrist -69.84308100077101
rhand -49.9681974292959 -10.106183652495247
rfingers 7.125020000000001
rthumb -22.558597403781558 -38.808283739978435
